# xmcd
#
# Track frame offsets: 
#        150
#        21832
#        45571
#        64794
#        79271
#        96434
#        117697
#        141054
#        163905
#        176290
#
# Disc length: 2604 seconds
#
# Revision: 0
# Processed by: cddbd v1.5.2PL0 Copyright (c) Steve Scherf et al.
# Submitted via: ExactAudioCopy v1.0b4
#
DISCID=880a2a0a
DTITLE=Doug Jernigan - Leave Of Absence
DYEAR=2011
DGENRE=Country
TTITLE0=Crazy Charlie
TTITLE1=Dance Again
TTITLE2=Right About Now
TTITLE3=Emily's Waltz
TTITLE4=Don't Knock It
TTITLE5=Leave Of Absence
TTITLE6=Once Upon A Time
TTITLE7=James Lee
TTITLE8=PDB
TTITLE9=Tell Me That You Love Me
EXTD=
EXTT0=
EXTT1=
EXTT2=
EXTT3=
EXTT4=
EXTT5=
EXTT6=
EXTT7=
EXTT8=
EXTT9=
PLAYORDER=
